<svg width="70" height="72" viewBox="0 0 70 72" fill="none" xmlns="http://www.w3.org/2000/svg">
<path d="M55.3226 7.72856C64.2137 14.1571 70 24.6714 70 36.5714C70 56.1142 54.3629 71.9571 35.0706 71.9999C15.8065 72.0428 0.0282516 56.1428 2.57583e-05 36.6285C-0.0140871 24.7285 5.7722 14.1857 14.6492 7.74285C16.3004 6.55714 18.6008 7.05713 19.5887 8.84285L21.8186 12.8571C22.6512 14.3571 22.2561 16.2571 20.8871 17.2857C15.0303 21.6857 11.2903 28.6571 11.2903 36.5571C11.2762 49.7428 21.8045 60.5714 35 60.5714C47.9274 60.5714 58.7944 49.9714 58.7097 36.4142C58.6673 29.0143 55.2238 21.8714 49.0988 17.2714C47.7299 16.2428 47.3488 14.3428 48.1815 12.8571L50.4113 8.84285C51.3992 7.07142 53.6855 6.54285 55.3226 7.72856ZM40.6452 37.7142V3.42857C40.6452 1.52857 39.1351 0 37.2581 0H32.742C30.8649 0 29.3549 1.52857 29.3549 3.42857V37.7142C29.3549 39.6142 30.8649 41.1428 32.742 41.1428H37.2581C39.1351 41.1428 40.6452 39.6142 40.6452 37.7142Z" fill="white"/>
</svg>
